#N canvas 65 54 1535 846 10;
#X obj 404 624 print;
#X msg 403 543 devices;
#X floatatom 323 625 5 0 0 0 - - -;
#X obj 241 364 bng 15 250 50 0 empty empty empty 17 7 0 10 -262144
-1 -1;
#X obj 315 392 bng 15 250 50 0 empty empty empty 17 7 0 10 -262144
-1 -1;
#X obj 367 392 bng 15 250 50 0 empty empty empty 17 7 0 10 -262144
-1 -1;
#X msg 521 55 1;
#X msg 547 55 0;
#X floatatom 595 59 5 0 0 0 - - -;
#X floatatom 635 59 5 0 0 0 - - -;
#X obj 521 94 sequencer_clock;
#X floatatom 677 59 5 0 0 0 - - -;
#X floatatom 722 60 5 0 0 0 - - -;
#X floatatom 595 29 5 0 0 0 - - -;
#X obj 595 -9 expr (60 / $f1) * 1000;
#X obj 968 -49 16stepsequencer;
#X obj 968 48 16stepsequencer;
#X floatatom 595 -40 5 0 0 0 - - -;
#X obj 774 82 s reset_clock;
#X obj 774 55 bng 15 250 50 0 empty empty empty 17 7 0 10 -262144 -1
-1;
#X msg 664 25 16;
#X msg 707 31 16;
#X msg 740 25 16;
#X msg 671 -64 240;
#X obj 740 -50 loadbang;
#X obj 968 148 16stepsequencer;
#X obj 968 246 16stepsequencer;
#X obj 968 341 16stepsequencer;
#X obj 968 438 16stepsequencer;
#X obj 968 538 16stepsequencer;
#X obj 968 636 16stepsequencer;
#X obj 426 392 bng 15 250 50 0 empty empty empty 17 7 0 10 -262144
-1 -1;
#X obj 481 392 bng 15 250 50 0 empty empty empty 17 7 0 10 -262144
-1 -1;
#X obj 537 392 bng 15 250 50 0 empty empty empty 17 7 0 10 -262144
-1 -1;
#X obj 643 392 bng 15 250 50 0 empty empty empty 17 7 0 10 -262144
-1 -1;
#X obj 591 392 bng 15 250 50 0 empty empty empty 17 7 0 10 -262144
-1 -1;
#X obj 323 575 comport 9600;
#X msg 470 550 open 0;
#X msg 556 549 close 0;
#X msg 241 417 print A;
#X msg 315 416 print B;
#X msg 367 416 print C;
#X msg 426 416 print D;
#X msg 481 416 print E;
#X msg 537 416 print F;
#X msg 591 416 print G;
#X msg 643 416 print H;
#X connect 1 0 36 0;
#X connect 3 0 39 0;
#X connect 4 0 40 0;
#X connect 5 0 41 0;
#X connect 6 0 10 0;
#X connect 7 0 10 0;
#X connect 8 0 10 1;
#X connect 9 0 10 2;
#X connect 10 0 15 0;
#X connect 10 0 25 0;
#X connect 10 0 26 0;
#X connect 10 0 27 0;
#X connect 10 0 28 0;
#X connect 10 0 29 0;
#X connect 10 0 30 0;
#X connect 10 1 16 0;
#X connect 11 0 10 3;
#X connect 12 0 10 4;
#X connect 13 0 8 0;
#X connect 14 0 13 0;
#X connect 15 0 3 0;
#X connect 16 0 4 0;
#X connect 17 0 14 0;
#X connect 19 0 18 0;
#X connect 20 0 9 0;
#X connect 21 0 11 0;
#X connect 22 0 12 0;
#X connect 23 0 17 0;
#X connect 24 0 23 0;
#X connect 24 0 22 0;
#X connect 24 0 21 0;
#X connect 24 0 20 0;
#X connect 24 0 19 0;
#X connect 25 0 5 0;
#X connect 26 0 31 0;
#X connect 27 0 32 0;
#X connect 28 0 33 0;
#X connect 29 0 35 0;
#X connect 30 0 34 0;
#X connect 31 0 42 0;
#X connect 32 0 43 0;
#X connect 33 0 44 0;
#X connect 34 0 46 0;
#X connect 35 0 45 0;
#X connect 36 0 2 0;
#X connect 36 1 0 0;
#X connect 37 0 36 0;
#X connect 38 0 36 0;
#X connect 39 0 36 0;
#X connect 40 0 36 0;
#X connect 41 0 36 0;
#X connect 42 0 36 0;
#X connect 43 0 36 0;
#X connect 44 0 36 0;
#X connect 45 0 36 0;
#X connect 46 0 36 0;
