#N canvas 768 358 450 300 10;
#X msg 17 56 1;
#X msg 50 56 0;
#X obj 17 86 metro 250;
#X obj 17 170 count 16;
#X floatatom 89 86 5 0 0 0 - - -;
#X floatatom 148 115 5 0 0 0 - - -;
#X obj 106 57 inlet;
#X obj 148 57 inlet;
#X obj 17 26 loadbang;
#X obj 76 27 inlet;
#X obj 17 211 outlet;
#X msg 307 57 reset;
#X obj 307 30 r reset_clock;
#X obj 396 66 s reset_clock;
#X obj 396 30 loadbang;
#X obj 453 31 bng 15 250 50 0 empty empty empty 17 7 0 10 -262144 -1
-1;
#X obj 93 213 outlet;
#X obj 97 173 count 12;
#X obj 198 173 count 6;
#X obj 17 117 bng 15 250 50 0 empty empty empty 17 7 0 10 -262144 -1
-1;
#X obj 176 212 outlet;
#X floatatom 188 116 5 0 0 0 - - -;
#X obj 188 58 inlet;
#X floatatom 226 118 5 0 0 0 - - -;
#X obj 226 60 inlet;
#X connect 0 0 2 0;
#X connect 1 0 2 0;
#X connect 2 0 19 0;
#X connect 3 0 10 0;
#X connect 4 0 2 1;
#X connect 5 0 3 1;
#X connect 6 0 4 0;
#X connect 7 0 5 0;
#X connect 8 0 0 0;
#X connect 9 0 2 0;
#X connect 11 0 3 0;
#X connect 11 0 17 0;
#X connect 11 0 18 0;
#X connect 12 0 11 0;
#X connect 14 0 13 0;
#X connect 15 0 13 0;
#X connect 17 0 16 0;
#X connect 18 0 20 0;
#X connect 19 0 3 0;
#X connect 19 0 17 0;
#X connect 19 0 18 0;
#X connect 21 0 17 1;
#X connect 22 0 21 0;
#X connect 23 0 18 1;
#X connect 24 0 23 0;
