#N canvas 65 82 1265 718 10;
#X obj 227 291 knob 32 32 0 9 0 0 empty empty empty 0 -8 0 8 -262144
-1 -1 0 1;
#X floatatom 227 365 5 0 0 0 - - -;
#X obj 307 291 knob 32 32 0 9 0 0 empty empty empty 0 -8 0 8 -262144
-1 -1 0 1;
#X floatatom 307 365 5 0 0 0 - - -;
#X obj 387 291 knob 32 32 0 9 0 0 empty empty empty 0 -8 0 8 -262144
-1 -1 0 1;
#X floatatom 387 365 5 0 0 0 - - -;
#X obj 467 291 knob 32 32 0 9 0 0 empty empty empty 0 -8 0 8 -262144
-1 -1 0 1;
#X floatatom 467 365 5 0 0 0 - - -;
#X text 229 271 kick;
#X text 315 271 sn;
#X text 395 272 hh;
#X text 471 271 perc;
#X obj 91 300 metro;
#X floatatom 118 172 5 0 0 0 - - -;
#X obj 91 172 tgl 15 0 empty empty empty 17 7 0 10 -262144 -1 -1 1
1;
#X obj 91 323 f;
#X obj 124 323 + 1;
#X obj 118 247 /;
#X floatatom 118 269 5 0 0 0 - - -;
#X msg 118 221 14992;
#N canvas 65 102 767 818 kick1 0;
#X obj 195 26 inlet;
#X obj 295 26 inlet;
#X text 185 8 step 0-15;
#X obj 24 314 select 0 1 2 3 4 5 6 7 8 9 10 11 12 13 14 15;
#X obj 24 390 spigot;
#X obj 478 314 unpack f f f f f f f f f f f f f f f f;
#X obj 67 390 spigot;
#X obj 110 390 spigot;
#X obj 153 390 spigot;
#X obj 196 390 spigot;
#X obj 239 390 spigot;
#X obj 282 390 spigot;
#X obj 325 390 spigot;
#X obj 369 390 spigot;
#X obj 412 390 spigot;
#X obj 455 390 spigot;
#X obj 498 390 spigot;
#X obj 541 390 spigot;
#X obj 584 390 spigot;
#X obj 627 390 spigot;
#X obj 670 390 spigot;
#X obj 24 631 outlet;
#X obj 295 51 sel 0 1 2 3 4 5 6 7 8 9;
#X text 273 8 selector 0-9;
#X msg 518 290 1 0 0 1 1 0 0 1 1 0 0 1 1 0 0 1;
#X msg 518 110 0 0 0 0 0 0 0 0 0 0 0 0 0 0 0 0;
#X msg 518 130 1 0 0 0 1 0 0 0 1 0 0 0 1 0 0 0;
#X msg 518 150 1 0 0 0 1 0 0 0 1 0 0 0 1 0 0 0;
#X msg 518 170 1 0 0 0 1 0 0 0 1 0 0 0 1 0 0 0;
#X msg 518 190 1 0 0 0 1 0 0 0 1 0 0 0 1 0 0 0;
#X msg 518 210 1 0 0 0 1 0 0 0 1 0 0 0 1 0 0 0;
#X msg 518 230 1 0 0 0 1 0 0 0 1 0 0 0 1 0 0 0;
#X msg 518 250 1 0 0 0 1 0 0 0 1 0 0 0 1 0 0 0;
#X msg 518 270 1 0 0 0 1 0 0 0 1 0 0 0 1 0 0 0;
#X connect 0 0 3 0;
#X connect 1 0 22 0;
#X connect 3 0 4 0;
#X connect 3 1 6 0;
#X connect 3 2 7 0;
#X connect 3 3 8 0;
#X connect 3 4 9 0;
#X connect 3 5 10 0;
#X connect 3 6 11 0;
#X connect 3 7 12 0;
#X connect 3 8 13 0;
#X connect 3 9 14 0;
#X connect 3 10 15 0;
#X connect 3 11 16 0;
#X connect 3 12 17 0;
#X connect 3 13 18 0;
#X connect 3 14 19 0;
#X connect 3 15 20 0;
#X connect 4 0 21 0;
#X connect 5 0 4 1;
#X connect 5 1 6 1;
#X connect 5 2 7 1;
#X connect 5 3 8 1;
#X connect 5 4 9 1;
#X connect 5 5 10 1;
#X connect 5 6 11 1;
#X connect 5 7 12 1;
#X connect 5 8 13 1;
#X connect 5 9 14 1;
#X connect 5 10 15 1;
#X connect 5 11 16 1;
#X connect 5 12 17 1;
#X connect 5 13 18 1;
#X connect 5 14 19 1;
#X connect 5 15 20 1;
#X connect 6 0 21 0;
#X connect 7 0 21 0;
#X connect 8 0 21 0;
#X connect 9 0 21 0;
#X connect 10 0 21 0;
#X connect 11 0 21 0;
#X connect 12 0 21 0;
#X connect 13 0 21 0;
#X connect 14 0 21 0;
#X connect 15 0 21 0;
#X connect 16 0 21 0;
#X connect 17 0 21 0;
#X connect 18 0 21 0;
#X connect 19 0 21 0;
#X connect 20 0 21 0;
#X connect 22 0 25 0;
#X connect 22 1 26 0;
#X connect 22 2 27 0;
#X connect 22 3 28 0;
#X connect 22 4 29 0;
#X connect 22 5 30 0;
#X connect 22 6 31 0;
#X connect 22 7 32 0;
#X connect 22 8 33 0;
#X connect 22 9 24 0;
#X connect 24 0 5 0;
#X connect 25 0 5 0;
#X connect 26 0 5 0;
#X connect 27 0 5 0;
#X connect 28 0 5 0;
#X connect 29 0 5 0;
#X connect 30 0 5 0;
#X connect 31 0 5 0;
#X connect 32 0 5 0;
#X connect 33 0 5 0;
#X restore -29 518 pd kick1;
#N canvas 823 97 767 818 kick2 0;
#X obj 195 26 inlet;
#X obj 295 26 inlet;
#X text 185 8 step 0-15;
#X obj 24 314 select 0 1 2 3 4 5 6 7 8 9 10 11 12 13 14 15;
#X obj 24 390 spigot;
#X obj 478 314 unpack f f f f f f f f f f f f f f f f;
#X obj 67 390 spigot;
#X obj 110 390 spigot;
#X obj 153 390 spigot;
#X obj 196 390 spigot;
#X obj 239 390 spigot;
#X obj 282 390 spigot;
#X obj 325 390 spigot;
#X obj 369 390 spigot;
#X obj 412 390 spigot;
#X obj 455 390 spigot;
#X obj 498 390 spigot;
#X obj 541 390 spigot;
#X obj 584 390 spigot;
#X obj 627 390 spigot;
#X obj 670 390 spigot;
#X obj 24 631 outlet;
#X obj 295 51 sel 0 1 2 3 4 5 6 7 8 9;
#X text 273 8 selector 0-9;
#X msg 518 110 0 0 0 0 0 0 0 0 0 0 0 0 0 0 0 0;
#X msg 518 150 0 0 0 0 0 0 0 0 0 1 0 0 0 0 0 0;
#X msg 518 170 0 0 0 0 0 0 0 0 0 1 0 0 0 0 1 0;
#X msg 518 190 0 0 0 0 0 0 0 0 0 0 0 0 0 0 0 1;
#X msg 518 210 0 0 0 0 0 0 0 0 0 0 0 0 0 1 0 0;
#X msg 518 230 0 0 0 0 0 1 0 0 0 0 0 0 0 0 0 0;
#X msg 518 250 0 0 0 0 0 1 0 0 0 0 0 0 0 0 1 0;
#X msg 518 270 0 1 0 0 0 0 0 0 0 0 0 1 0 0 0 0;
#X msg 518 290 0 0 0 0 0 0 1 0 0 0 0 0 0 0 1 0;
#X msg 518 130 0 0 0 0 0 0 0 0 0 0 0 0 0 0 0 0;
#X connect 0 0 3 0;
#X connect 1 0 22 0;
#X connect 3 0 4 0;
#X connect 3 1 6 0;
#X connect 3 2 7 0;
#X connect 3 3 8 0;
#X connect 3 4 9 0;
#X connect 3 5 10 0;
#X connect 3 6 11 0;
#X connect 3 7 12 0;
#X connect 3 8 13 0;
#X connect 3 9 14 0;
#X connect 3 10 15 0;
#X connect 3 11 16 0;
#X connect 3 12 17 0;
#X connect 3 13 18 0;
#X connect 3 14 19 0;
#X connect 3 15 20 0;
#X connect 4 0 21 0;
#X connect 5 0 4 1;
#X connect 5 1 6 1;
#X connect 5 2 7 1;
#X connect 5 3 8 1;
#X connect 5 4 9 1;
#X connect 5 5 10 1;
#X connect 5 6 11 1;
#X connect 5 7 12 1;
#X connect 5 8 13 1;
#X connect 5 9 14 1;
#X connect 5 10 15 1;
#X connect 5 11 16 1;
#X connect 5 12 17 1;
#X connect 5 13 18 1;
#X connect 5 14 19 1;
#X connect 5 15 20 1;
#X connect 6 0 21 0;
#X connect 7 0 21 0;
#X connect 8 0 21 0;
#X connect 9 0 21 0;
#X connect 10 0 21 0;
#X connect 11 0 21 0;
#X connect 12 0 21 0;
#X connect 13 0 21 0;
#X connect 14 0 21 0;
#X connect 15 0 21 0;
#X connect 16 0 21 0;
#X connect 17 0 21 0;
#X connect 18 0 21 0;
#X connect 19 0 21 0;
#X connect 20 0 21 0;
#X connect 22 0 24 0;
#X connect 22 1 33 0;
#X connect 22 2 25 0;
#X connect 22 3 26 0;
#X connect 22 4 27 0;
#X connect 22 5 28 0;
#X connect 22 6 29 0;
#X connect 22 7 30 0;
#X connect 22 8 31 0;
#X connect 22 9 32 0;
#X connect 24 0 5 0;
#X connect 25 0 5 0;
#X connect 26 0 5 0;
#X connect 27 0 5 0;
#X connect 28 0 5 0;
#X connect 29 0 5 0;
#X connect 30 0 5 0;
#X connect 31 0 5 0;
#X connect 32 0 5 0;
#X connect 33 0 5 0;
#X restore 31 518 pd kick2;
#N canvas 829 87 767 818 sn1 0;
#X obj 195 26 inlet;
#X obj 372 23 inlet;
#X text 185 8 step 0-15;
#X obj 24 314 select 0 1 2 3 4 5 6 7 8 9 10 11 12 13 14 15;
#X obj 24 390 spigot;
#X obj 478 314 unpack f f f f f f f f f f f f f f f f;
#X obj 67 390 spigot;
#X obj 110 390 spigot;
#X obj 153 390 spigot;
#X obj 196 390 spigot;
#X obj 239 390 spigot;
#X obj 282 390 spigot;
#X obj 325 390 spigot;
#X obj 369 390 spigot;
#X obj 412 390 spigot;
#X obj 455 390 spigot;
#X obj 498 390 spigot;
#X obj 541 390 spigot;
#X obj 584 390 spigot;
#X obj 627 390 spigot;
#X obj 670 390 spigot;
#X obj 24 631 outlet;
#X obj 372 48 sel 0 1 2 3 4 5 6 7 8 9;
#X text 350 5 selector 0-9;
#X msg 518 110 0 0 0 0 0 0 0 0 0 0 0 0 0 0 0 0;
#X msg 518 130 0 0 0 0 1 0 0 0 0 0 0 0 1 0 0 0;
#X msg 518 150 0 0 0 0 1 0 0 0 0 0 0 0 1 0 0 0;
#X msg 518 170 0 0 0 0 1 0 0 0 0 0 0 0 1 0 0 0;
#X msg 518 190 0 0 0 0 1 0 0 0 0 0 0 0 1 0 0 0;
#X msg 518 210 0 0 0 0 1 0 0 0 0 0 0 0 1 0 0 1;
#X msg 518 230 0 0 0 0 1 0 0 0 0 0 0 1 0 0 0 0;
#X msg 518 250 0 0 0 0 1 0 0 0 0 0 0 0 1 0 0 0;
#X msg 518 270 0 0 0 0 1 0 0 0 0 0 0 0 0 0 1 0;
#X msg 518 290 0 0 0 0 1 0 0 0 0 0 0 0 1 0 0 0;
#X connect 0 0 3 0;
#X connect 1 0 22 0;
#X connect 3 0 4 0;
#X connect 3 1 6 0;
#X connect 3 2 7 0;
#X connect 3 3 8 0;
#X connect 3 4 9 0;
#X connect 3 5 10 0;
#X connect 3 6 11 0;
#X connect 3 7 12 0;
#X connect 3 8 13 0;
#X connect 3 9 14 0;
#X connect 3 10 15 0;
#X connect 3 11 16 0;
#X connect 3 12 17 0;
#X connect 3 13 18 0;
#X connect 3 14 19 0;
#X connect 3 15 20 0;
#X connect 4 0 21 0;
#X connect 5 0 4 1;
#X connect 5 1 6 1;
#X connect 5 2 7 1;
#X connect 5 3 8 1;
#X connect 5 4 9 1;
#X connect 5 5 10 1;
#X connect 5 6 11 1;
#X connect 5 7 12 1;
#X connect 5 8 13 1;
#X connect 5 9 14 1;
#X connect 5 10 15 1;
#X connect 5 11 16 1;
#X connect 5 12 17 1;
#X connect 5 13 18 1;
#X connect 5 14 19 1;
#X connect 5 15 20 1;
#X connect 6 0 21 0;
#X connect 7 0 21 0;
#X connect 8 0 21 0;
#X connect 9 0 21 0;
#X connect 10 0 21 0;
#X connect 11 0 21 0;
#X connect 12 0 21 0;
#X connect 13 0 21 0;
#X connect 14 0 21 0;
#X connect 15 0 21 0;
#X connect 16 0 21 0;
#X connect 17 0 21 0;
#X connect 18 0 21 0;
#X connect 19 0 21 0;
#X connect 20 0 21 0;
#X connect 22 0 24 0;
#X connect 22 1 25 0;
#X connect 22 2 26 0;
#X connect 22 3 27 0;
#X connect 22 4 28 0;
#X connect 22 5 29 0;
#X connect 22 6 30 0;
#X connect 22 7 31 0;
#X connect 22 8 32 0;
#X connect 22 9 33 0;
#X connect 24 0 5 0;
#X connect 25 0 5 0;
#X connect 26 0 5 0;
#X connect 27 0 5 0;
#X connect 28 0 5 0;
#X connect 29 0 5 0;
#X connect 30 0 5 0;
#X connect 31 0 5 0;
#X connect 32 0 5 0;
#X connect 33 0 5 0;
#X restore 91 518 pd sn1;
#N canvas 826 92 767 818 sn2 0;
#X obj 195 26 inlet;
#X obj 295 26 inlet;
#X text 185 8 step 0-15;
#X obj 24 314 select 0 1 2 3 4 5 6 7 8 9 10 11 12 13 14 15;
#X obj 24 390 spigot;
#X obj 478 314 unpack f f f f f f f f f f f f f f f f;
#X obj 67 390 spigot;
#X obj 110 390 spigot;
#X obj 153 390 spigot;
#X obj 196 390 spigot;
#X obj 239 390 spigot;
#X obj 282 390 spigot;
#X obj 325 390 spigot;
#X obj 369 390 spigot;
#X obj 412 390 spigot;
#X obj 455 390 spigot;
#X obj 498 390 spigot;
#X obj 541 390 spigot;
#X obj 584 390 spigot;
#X obj 627 390 spigot;
#X obj 670 390 spigot;
#X obj 24 631 outlet;
#X obj 295 51 sel 0 1 2 3 4 5 6 7 8 9;
#X text 273 8 selector 0-9;
#X msg 518 130 0 0 0 0 0 0 0 0 0 0 0 0 0 0 0 0;
#X msg 518 110 0 0 0 0 0 0 0 0 0 0 0 0 0 0 0 0;
#X msg 518 150 0 0 0 0 0 0 0 1 0 0 0 0 0 0 0 0;
#X msg 518 170 0 0 0 0 0 0 0 0 0 1 0 0 0 0 0 0;
#X msg 518 190 0 0 0 0 0 0 0 0 0 0 0 0 0 1 0 0;
#X msg 518 210 0 0 0 0 0 0 0 0 0 0 0 0 0 0 0 0;
#X msg 518 230 0 0 0 0 0 0 0 0 0 0 0 1 0 0 0 0;
#X msg 518 250 0 0 0 0 0 0 0 0 0 0 0 1 0 0 0 0;
#X msg 518 290 0 0 0 1 0 0 0 0 0 0 0 1 0 0 0 0;
#X msg 518 270 0 0 0 0 0 1 0 0 0 0 0 0 0 0 0 0;
#X connect 0 0 3 0;
#X connect 1 0 22 0;
#X connect 3 0 4 0;
#X connect 3 1 6 0;
#X connect 3 2 7 0;
#X connect 3 3 8 0;
#X connect 3 4 9 0;
#X connect 3 5 10 0;
#X connect 3 6 11 0;
#X connect 3 7 12 0;
#X connect 3 8 13 0;
#X connect 3 9 14 0;
#X connect 3 10 15 0;
#X connect 3 11 16 0;
#X connect 3 12 17 0;
#X connect 3 13 18 0;
#X connect 3 14 19 0;
#X connect 3 15 20 0;
#X connect 4 0 21 0;
#X connect 5 0 4 1;
#X connect 5 1 6 1;
#X connect 5 2 7 1;
#X connect 5 3 8 1;
#X connect 5 4 9 1;
#X connect 5 5 10 1;
#X connect 5 6 11 1;
#X connect 5 7 12 1;
#X connect 5 8 13 1;
#X connect 5 9 14 1;
#X connect 5 10 15 1;
#X connect 5 11 16 1;
#X connect 5 12 17 1;
#X connect 5 13 18 1;
#X connect 5 14 19 1;
#X connect 5 15 20 1;
#X connect 6 0 21 0;
#X connect 7 0 21 0;
#X connect 8 0 21 0;
#X connect 9 0 21 0;
#X connect 10 0 21 0;
#X connect 11 0 21 0;
#X connect 12 0 21 0;
#X connect 13 0 21 0;
#X connect 14 0 21 0;
#X connect 15 0 21 0;
#X connect 16 0 21 0;
#X connect 17 0 21 0;
#X connect 18 0 21 0;
#X connect 19 0 21 0;
#X connect 20 0 21 0;
#X connect 22 0 25 0;
#X connect 22 1 24 0;
#X connect 22 2 26 0;
#X connect 22 3 27 0;
#X connect 22 4 28 0;
#X connect 22 5 29 0;
#X connect 22 6 30 0;
#X connect 22 7 31 0;
#X connect 22 8 33 0;
#X connect 22 9 32 0;
#X connect 24 0 5 0;
#X connect 25 0 5 0;
#X connect 26 0 5 0;
#X connect 27 0 5 0;
#X connect 28 0 5 0;
#X connect 29 0 5 0;
#X connect 30 0 5 0;
#X connect 31 0 5 0;
#X connect 32 0 5 0;
#X connect 33 0 5 0;
#X restore 151 518 pd sn2;
#N canvas 65 82 767 818 hh1 0;
#X obj 195 26 inlet;
#X obj 295 26 inlet;
#X text 185 8 step 0-15;
#X obj 24 314 select 0 1 2 3 4 5 6 7 8 9 10 11 12 13 14 15;
#X obj 24 390 spigot;
#X obj 478 314 unpack f f f f f f f f f f f f f f f f;
#X obj 67 390 spigot;
#X obj 110 390 spigot;
#X obj 153 390 spigot;
#X obj 196 390 spigot;
#X obj 239 390 spigot;
#X obj 282 390 spigot;
#X obj 325 390 spigot;
#X obj 369 390 spigot;
#X obj 412 390 spigot;
#X obj 455 390 spigot;
#X obj 498 390 spigot;
#X obj 541 390 spigot;
#X obj 584 390 spigot;
#X obj 627 390 spigot;
#X obj 670 390 spigot;
#X obj 24 631 outlet;
#X obj 295 51 sel 0 1 2 3 4 5 6 7 8 9;
#X text 273 8 selector 0-9;
#X msg 518 130 0 0 1 0 0 0 1 0 0 0 1 0 0 0 1 0;
#X msg 518 110 0 0 0 0 0 0 0 0 0 0 0 0 0 0 0 0;
#X msg 518 150 0 0 1 0 0 0 1 0 0 0 1 0 0 0 1 0;
#X msg 518 170 0 0 1 0 0 0 1 0 0 0 1 0 0 0 1 0;
#X msg 518 190 0 0 1 0 0 0 1 0 0 0 1 0 0 0 1 0;
#X msg 518 210 0 0 1 0 0 0 0 1 0 0 1 0 0 0 1 0;
#X msg 518 230 0 0 1 0 0 0 0 0 0 0 1 0 0 0 1 0;
#X msg 518 250 0 0 1 0 0 0 0 0 0 0 1 0 0 0 1 0;
#X msg 518 270 0 0 0 1 0 0 0 1 0 0 0 1 0 0 0 1;
#X msg 518 290 1 1 0 0 1 1 0 0 0 1 0 0 1 1 0 0;
#X connect 0 0 3 0;
#X connect 1 0 22 0;
#X connect 3 0 4 0;
#X connect 3 1 6 0;
#X connect 3 2 7 0;
#X connect 3 3 8 0;
#X connect 3 4 9 0;
#X connect 3 5 10 0;
#X connect 3 6 11 0;
#X connect 3 7 12 0;
#X connect 3 8 13 0;
#X connect 3 9 14 0;
#X connect 3 10 15 0;
#X connect 3 11 16 0;
#X connect 3 12 17 0;
#X connect 3 13 18 0;
#X connect 3 14 19 0;
#X connect 3 15 20 0;
#X connect 4 0 21 0;
#X connect 5 0 4 1;
#X connect 5 1 6 1;
#X connect 5 2 7 1;
#X connect 5 3 8 1;
#X connect 5 4 9 1;
#X connect 5 5 10 1;
#X connect 5 6 11 1;
#X connect 5 7 12 1;
#X connect 5 8 13 1;
#X connect 5 9 14 1;
#X connect 5 10 15 1;
#X connect 5 11 16 1;
#X connect 5 12 17 1;
#X connect 5 13 18 1;
#X connect 5 14 19 1;
#X connect 5 15 20 1;
#X connect 6 0 21 0;
#X connect 7 0 21 0;
#X connect 8 0 21 0;
#X connect 9 0 21 0;
#X connect 10 0 21 0;
#X connect 11 0 21 0;
#X connect 12 0 21 0;
#X connect 13 0 21 0;
#X connect 14 0 21 0;
#X connect 15 0 21 0;
#X connect 16 0 21 0;
#X connect 17 0 21 0;
#X connect 18 0 21 0;
#X connect 19 0 21 0;
#X connect 20 0 21 0;
#X connect 22 0 25 0;
#X connect 22 1 24 0;
#X connect 22 2 26 0;
#X connect 22 3 27 0;
#X connect 22 4 28 0;
#X connect 22 5 29 0;
#X connect 22 6 30 0;
#X connect 22 7 31 0;
#X connect 22 8 32 0;
#X connect 22 9 33 0;
#X connect 24 0 5 0;
#X connect 25 0 5 0;
#X connect 26 0 5 0;
#X connect 27 0 5 0;
#X connect 28 0 5 0;
#X connect 29 0 5 0;
#X connect 30 0 5 0;
#X connect 31 0 5 0;
#X connect 32 0 5 0;
#X connect 33 0 5 0;
#X restore 211 518 pd hh1;
#N canvas 832 82 767 818 hh2 0;
#X obj 195 26 inlet;
#X obj 295 26 inlet;
#X text 185 8 step 0-15;
#X obj 24 314 select 0 1 2 3 4 5 6 7 8 9 10 11 12 13 14 15;
#X obj 24 390 spigot;
#X obj 478 314 unpack f f f f f f f f f f f f f f f f;
#X obj 67 390 spigot;
#X obj 110 390 spigot;
#X obj 153 390 spigot;
#X obj 196 390 spigot;
#X obj 239 390 spigot;
#X obj 282 390 spigot;
#X obj 325 390 spigot;
#X obj 369 390 spigot;
#X obj 412 390 spigot;
#X obj 455 390 spigot;
#X obj 498 390 spigot;
#X obj 541 390 spigot;
#X obj 584 390 spigot;
#X obj 627 390 spigot;
#X obj 670 390 spigot;
#X obj 24 631 outlet;
#X obj 295 51 sel 0 1 2 3 4 5 6 7 8 9;
#X text 273 8 selector 0-9;
#X msg 518 130 0 0 0 0 0 0 0 0 0 0 0 0 0 0 0 0;
#X msg 518 110 0 0 0 0 0 0 0 0 0 0 0 0 0 0 0 0;
#X msg 518 150 0 0 0 1 0 0 0 1 0 0 0 1 0 0 0 1;
#X msg 518 170 0 0 0 0 0 0 0 1 0 0 0 0 0 1 0 0;
#X msg 518 190 0 1 0 0 0 0 0 0 0 0 0 1 0 0 0 0;
#X msg 518 210 0 0 0 0 0 1 0 0 0 0 0 0 0 0 0 0;
#X msg 518 230 1 0 0 0 1 0 1 0 1 0 0 0 1 0 0 0;
#X msg 518 250 1 1 0 0 1 1 0 0 1 1 0 0 1 1 0 0;
#X msg 518 270 1 1 0 0 1 1 0 0 1 1 0 0 1 1 0 0;
#X msg 518 290 0 0 1 1 0 0 1 1 0 0 1 1 0 0 0 1;
#X connect 0 0 3 0;
#X connect 1 0 22 0;
#X connect 3 0 4 0;
#X connect 3 1 6 0;
#X connect 3 2 7 0;
#X connect 3 3 8 0;
#X connect 3 4 9 0;
#X connect 3 5 10 0;
#X connect 3 6 11 0;
#X connect 3 7 12 0;
#X connect 3 8 13 0;
#X connect 3 9 14 0;
#X connect 3 10 15 0;
#X connect 3 11 16 0;
#X connect 3 12 17 0;
#X connect 3 13 18 0;
#X connect 3 14 19 0;
#X connect 3 15 20 0;
#X connect 4 0 21 0;
#X connect 5 0 4 1;
#X connect 5 1 6 1;
#X connect 5 2 7 1;
#X connect 5 3 8 1;
#X connect 5 4 9 1;
#X connect 5 5 10 1;
#X connect 5 6 11 1;
#X connect 5 7 12 1;
#X connect 5 8 13 1;
#X connect 5 9 14 1;
#X connect 5 10 15 1;
#X connect 5 11 16 1;
#X connect 5 12 17 1;
#X connect 5 13 18 1;
#X connect 5 14 19 1;
#X connect 5 15 20 1;
#X connect 6 0 21 0;
#X connect 7 0 21 0;
#X connect 8 0 21 0;
#X connect 9 0 21 0;
#X connect 10 0 21 0;
#X connect 11 0 21 0;
#X connect 12 0 21 0;
#X connect 13 0 21 0;
#X connect 14 0 21 0;
#X connect 15 0 21 0;
#X connect 16 0 21 0;
#X connect 17 0 21 0;
#X connect 18 0 21 0;
#X connect 19 0 21 0;
#X connect 20 0 21 0;
#X connect 22 0 25 0;
#X connect 22 1 24 0;
#X connect 22 2 26 0;
#X connect 22 3 27 0;
#X connect 22 4 28 0;
#X connect 22 5 29 0;
#X connect 22 6 30 0;
#X connect 22 7 31 0;
#X connect 22 8 32 0;
#X connect 22 9 33 0;
#X connect 24 0 5 0;
#X connect 25 0 5 0;
#X connect 26 0 5 0;
#X connect 27 0 5 0;
#X connect 28 0 5 0;
#X connect 29 0 5 0;
#X connect 30 0 5 0;
#X connect 31 0 5 0;
#X connect 32 0 5 0;
#X connect 33 0 5 0;
#X restore 271 518 pd hh2;
#N canvas 65 82 767 818 perc1 0;
#X obj 195 26 inlet;
#X obj 295 26 inlet;
#X text 185 8 step 0-15;
#X obj 24 314 select 0 1 2 3 4 5 6 7 8 9 10 11 12 13 14 15;
#X obj 24 390 spigot;
#X obj 67 390 spigot;
#X obj 110 390 spigot;
#X obj 153 390 spigot;
#X obj 196 390 spigot;
#X obj 239 390 spigot;
#X obj 282 390 spigot;
#X obj 325 390 spigot;
#X obj 369 390 spigot;
#X obj 412 390 spigot;
#X obj 455 390 spigot;
#X obj 498 390 spigot;
#X obj 541 390 spigot;
#X obj 584 390 spigot;
#X obj 627 390 spigot;
#X obj 670 390 spigot;
#X obj 24 631 outlet;
#X obj 295 51 sel 0 1 2 3 4 5 6 7 8 9;
#X text 273 8 selector 0-9;
#X msg 518 110 0 0 0 0 0 0 0 0 0 0 0 0 0 0 0 0;
#X obj 478 314 unpack f f f f f f f f f f f f f f f f;
#X msg 518 290 0 0 0 0 0 1 1 0 0 0 0 0 0 0 0 0;
#X msg 518 270 0 0 0 0 0 0 0 0 0 0 1 0 0 0 0 0;
#X msg 518 250 0 0 0 0 0 0 0 0 0 0 0 0 0 0 0 1;
#X msg 518 230 0 0 0 0 0 0 0 0 0 0 0 1 0 0 0 0;
#X msg 518 210 0 0 0 0 0 0 0 0 0 0 0 1 0 0 1 0;
#X msg 518 190 0 0 1 0 0 0 1 0 0 0 1 0 0 0 1 0;
#X msg 518 170 0 0 1 0 0 0 0 0 0 0 0 0 0 0 1 0;
#X msg 518 150 0 0 0 0 0 0 1 0 0 0 0 0 0 0 0 0;
#X msg 518 130 0 0 0 0 0 0 0 0 0 0 0 0 0 0 1 0;
#X connect 0 0 3 0;
#X connect 1 0 21 0;
#X connect 3 0 4 0;
#X connect 3 1 5 0;
#X connect 3 2 6 0;
#X connect 3 3 7 0;
#X connect 3 4 8 0;
#X connect 3 5 9 0;
#X connect 3 6 10 0;
#X connect 3 7 11 0;
#X connect 3 8 12 0;
#X connect 3 9 13 0;
#X connect 3 10 14 0;
#X connect 3 11 15 0;
#X connect 3 12 16 0;
#X connect 3 13 17 0;
#X connect 3 14 18 0;
#X connect 3 15 19 0;
#X connect 4 0 20 0;
#X connect 5 0 20 0;
#X connect 6 0 20 0;
#X connect 7 0 20 0;
#X connect 8 0 20 0;
#X connect 9 0 20 0;
#X connect 10 0 20 0;
#X connect 11 0 20 0;
#X connect 12 0 20 0;
#X connect 13 0 20 0;
#X connect 14 0 20 0;
#X connect 15 0 20 0;
#X connect 16 0 20 0;
#X connect 17 0 20 0;
#X connect 18 0 20 0;
#X connect 19 0 20 0;
#X connect 21 0 23 0;
#X connect 21 1 33 0;
#X connect 21 2 32 0;
#X connect 21 3 31 0;
#X connect 21 4 30 0;
#X connect 21 5 29 0;
#X connect 21 6 28 0;
#X connect 21 7 27 0;
#X connect 21 8 26 0;
#X connect 21 9 25 0;
#X connect 23 0 24 0;
#X connect 24 0 4 1;
#X connect 24 1 5 1;
#X connect 24 2 6 1;
#X connect 24 3 7 1;
#X connect 24 4 8 1;
#X connect 24 5 9 1;
#X connect 24 6 10 1;
#X connect 24 7 11 1;
#X connect 24 8 12 1;
#X connect 24 9 13 1;
#X connect 24 10 14 1;
#X connect 24 11 15 1;
#X connect 24 12 16 1;
#X connect 24 13 17 1;
#X connect 24 14 18 1;
#X connect 24 15 19 1;
#X connect 25 0 24 0;
#X connect 26 0 24 0;
#X connect 27 0 24 0;
#X connect 28 0 24 0;
#X connect 29 0 24 0;
#X connect 30 0 24 0;
#X connect 31 0 24 0;
#X connect 32 0 24 0;
#X connect 33 0 24 0;
#X restore 451 518 pd perc1;
#N canvas 832 82 767 818 perc2 0;
#X obj 195 26 inlet;
#X obj 295 26 inlet;
#X text 185 8 step 0-15;
#X obj 24 314 select 0 1 2 3 4 5 6 7 8 9 10 11 12 13 14 15;
#X obj 24 390 spigot;
#X obj 478 314 unpack f f f f f f f f f f f f f f f f;
#X obj 67 390 spigot;
#X obj 110 390 spigot;
#X obj 153 390 spigot;
#X obj 196 390 spigot;
#X obj 239 390 spigot;
#X obj 282 390 spigot;
#X obj 325 390 spigot;
#X obj 369 390 spigot;
#X obj 412 390 spigot;
#X obj 455 390 spigot;
#X obj 498 390 spigot;
#X obj 541 390 spigot;
#X obj 584 390 spigot;
#X obj 627 390 spigot;
#X obj 670 390 spigot;
#X obj 24 631 outlet;
#X obj 295 51 sel 0 1 2 3 4 5 6 7 8 9;
#X text 273 8 selector 0-9;
#X msg 518 130 0 0 0 0 0 0 0 0 0 0 0 0 0 0 0 0;
#X msg 518 110 0 0 0 0 0 0 0 0 0 0 0 0 0 0 0 0;
#X msg 517 290 0 0 0 1 0 0 0 0 0 0 0 1 0 0 0 0;
#X msg 518 270 0 0 0 0 0 0 0 0 0 0 0 1 0 0 0 0;
#X msg 518 230 0 0 0 0 0 1 0 0 0 0 0 0 0 0 0 0;
#X msg 518 250 0 0 0 0 0 0 0 0 0 0 0 0 0 1 0 0;
#X msg 518 210 0 0 0 0 0 1 0 0 0 0 0 0 0 0 0 0;
#X msg 518 190 0 0 0 0 0 0 0 0 0 0 0 0 0 0 0 1;
#X msg 519 170 0 0 0 0 0 0 1 0 0 0 1 0 0 0 0 0;
#X msg 518 150 0 0 0 0 0 0 0 0 0 0 0 0 0 0 0 1;
#X connect 0 0 3 0;
#X connect 1 0 22 0;
#X connect 3 0 4 0;
#X connect 3 1 6 0;
#X connect 3 2 7 0;
#X connect 3 3 8 0;
#X connect 3 4 9 0;
#X connect 3 5 10 0;
#X connect 3 6 11 0;
#X connect 3 7 12 0;
#X connect 3 8 13 0;
#X connect 3 9 14 0;
#X connect 3 10 15 0;
#X connect 3 11 16 0;
#X connect 3 12 17 0;
#X connect 3 13 18 0;
#X connect 3 14 19 0;
#X connect 3 15 20 0;
#X connect 4 0 21 0;
#X connect 5 0 4 1;
#X connect 5 1 6 1;
#X connect 5 2 7 1;
#X connect 5 3 8 1;
#X connect 5 4 9 1;
#X connect 5 5 10 1;
#X connect 5 6 11 1;
#X connect 5 7 12 1;
#X connect 5 8 13 1;
#X connect 5 9 14 1;
#X connect 5 10 15 1;
#X connect 5 11 16 1;
#X connect 5 12 17 1;
#X connect 5 13 18 1;
#X connect 5 14 19 1;
#X connect 5 15 20 1;
#X connect 6 0 21 0;
#X connect 7 0 21 0;
#X connect 8 0 21 0;
#X connect 9 0 21 0;
#X connect 10 0 21 0;
#X connect 11 0 21 0;
#X connect 12 0 21 0;
#X connect 13 0 21 0;
#X connect 14 0 21 0;
#X connect 15 0 21 0;
#X connect 16 0 21 0;
#X connect 17 0 21 0;
#X connect 18 0 21 0;
#X connect 19 0 21 0;
#X connect 20 0 21 0;
#X connect 22 0 25 0;
#X connect 22 1 24 0;
#X connect 22 2 33 0;
#X connect 22 3 32 0;
#X connect 22 4 31 0;
#X connect 22 5 30 0;
#X connect 22 6 28 0;
#X connect 22 7 29 0;
#X connect 22 8 27 0;
#X connect 22 9 26 0;
#X connect 24 0 5 0;
#X connect 25 0 5 0;
#X connect 26 0 5 0;
#X connect 27 0 5 0;
#X connect 28 0 5 0;
#X connect 29 0 5 0;
#X connect 30 0 5 0;
#X connect 31 0 5 0;
#X connect 32 0 5 0;
#X connect 33 0 5 0;
#X restore 511 518 pd perc2;
#N canvas 65 54 1535 846 perc3 0;
#X obj 195 26 inlet;
#X obj 295 26 inlet;
#X text 185 8 step 0-15;
#X msg 518 270 0 0 0 0 0 0 0 0 0 0 0 0 0 0 0 0;
#X obj 24 314 select 0 1 2 3 4 5 6 7 8 9 10 11 12 13 14 15;
#X obj 24 390 spigot;
#X obj 478 314 unpack f f f f f f f f f f f f f f f f;
#X obj 67 390 spigot;
#X obj 110 390 spigot;
#X obj 153 390 spigot;
#X obj 196 390 spigot;
#X obj 239 390 spigot;
#X obj 282 390 spigot;
#X obj 325 390 spigot;
#X obj 369 390 spigot;
#X obj 412 390 spigot;
#X obj 455 390 spigot;
#X obj 498 390 spigot;
#X obj 541 390 spigot;
#X obj 584 390 spigot;
#X obj 627 390 spigot;
#X obj 670 390 spigot;
#X obj 24 631 outlet;
#X obj 295 51 sel 0 1 2 3 4 5 6 7 8 9;
#X text 273 8 selector 0-9;
#X msg 518 210 0 0 0 0 0 0 0 0 0 0 0 0 0 0 0 0;
#X msg 518 130 0 0 0 0 0 0 0 0 0 0 0 0 0 0 0 0;
#X msg 518 110 0 0 0 0 0 0 0 0 0 0 0 0 0 0 0 0;
#X msg 518 150 0 0 0 0 0 0 0 0 0 0 0 0 0 0 0 0;
#X msg 518 170 0 0 0 0 0 0 0 0 0 0 0 0 0 0 0 0;
#X msg 518 190 0 0 0 0 0 0 0 0 0 0 0 0 0 0 0 0;
#X msg 518 230 0 0 0 0 0 0 0 0 0 0 0 0 0 0 0 0;
#X msg 518 250 0 0 0 0 0 0 0 0 0 0 0 0 0 0 0 0;
#X msg 518 290 0 0 0 0 0 0 0 0 0 0 0 0 0 0 0 0;
#X connect 0 0 4 0;
#X connect 1 0 23 0;
#X connect 3 0 6 0;
#X connect 4 0 5 0;
#X connect 4 1 7 0;
#X connect 4 2 8 0;
#X connect 4 3 9 0;
#X connect 4 4 10 0;
#X connect 4 5 11 0;
#X connect 4 6 12 0;
#X connect 4 7 13 0;
#X connect 4 8 14 0;
#X connect 4 9 15 0;
#X connect 4 10 16 0;
#X connect 4 11 17 0;
#X connect 4 12 18 0;
#X connect 4 13 19 0;
#X connect 4 14 20 0;
#X connect 4 15 21 0;
#X connect 5 0 22 0;
#X connect 6 0 5 1;
#X connect 6 1 7 1;
#X connect 6 2 8 1;
#X connect 6 3 9 1;
#X connect 6 4 10 1;
#X connect 6 5 11 1;
#X connect 6 6 12 1;
#X connect 6 7 13 1;
#X connect 6 8 14 1;
#X connect 6 9 15 1;
#X connect 6 10 16 1;
#X connect 6 11 17 1;
#X connect 6 12 18 1;
#X connect 6 13 19 1;
#X connect 6 14 20 1;
#X connect 6 15 21 1;
#X connect 7 0 22 0;
#X connect 8 0 22 0;
#X connect 9 0 22 0;
#X connect 10 0 22 0;
#X connect 11 0 22 0;
#X connect 12 0 22 0;
#X connect 13 0 22 0;
#X connect 14 0 22 0;
#X connect 15 0 22 0;
#X connect 16 0 22 0;
#X connect 17 0 22 0;
#X connect 18 0 22 0;
#X connect 19 0 22 0;
#X connect 20 0 22 0;
#X connect 21 0 22 0;
#X connect 23 0 27 0;
#X connect 23 1 26 0;
#X connect 23 2 28 0;
#X connect 23 3 29 0;
#X connect 23 4 30 0;
#X connect 23 5 25 0;
#X connect 23 6 31 0;
#X connect 23 7 32 0;
#X connect 23 8 3 0;
#X connect 23 9 33 0;
#X connect 25 0 6 0;
#X connect 26 0 6 0;
#X connect 27 0 6 0;
#X connect 28 0 6 0;
#X connect 29 0 6 0;
#X connect 30 0 6 0;
#X connect 31 0 6 0;
#X connect 32 0 6 0;
#X connect 33 0 6 0;
#X restore 571 608 pd perc3;
#N canvas 65 54 1535 846 perc4 0;
#X obj 195 26 inlet;
#X obj 295 26 inlet;
#X text 185 8 step 0-15;
#X msg 518 270 0 0 0 0 0 0 0 0 0 0 0 0 0 0 0 0;
#X obj 24 314 select 0 1 2 3 4 5 6 7 8 9 10 11 12 13 14 15;
#X obj 24 390 spigot;
#X obj 478 314 unpack f f f f f f f f f f f f f f f f;
#X obj 67 390 spigot;
#X obj 110 390 spigot;
#X obj 153 390 spigot;
#X obj 196 390 spigot;
#X obj 239 390 spigot;
#X obj 282 390 spigot;
#X obj 325 390 spigot;
#X obj 369 390 spigot;
#X obj 412 390 spigot;
#X obj 455 390 spigot;
#X obj 498 390 spigot;
#X obj 541 390 spigot;
#X obj 584 390 spigot;
#X obj 627 390 spigot;
#X obj 670 390 spigot;
#X obj 24 631 outlet;
#X obj 295 51 sel 0 1 2 3 4 5 6 7 8 9;
#X text 273 8 selector 0-9;
#X msg 518 210 0 0 0 0 0 0 0 0 0 0 0 0 0 0 0 0;
#X msg 518 130 0 0 0 0 0 0 0 0 0 0 0 0 0 0 0 0;
#X msg 518 110 0 0 0 0 0 0 0 0 0 0 0 0 0 0 0 0;
#X msg 518 150 0 0 0 0 0 0 0 0 0 0 0 0 0 0 0 0;
#X msg 518 170 0 0 0 0 0 0 0 0 0 0 0 0 0 0 0 0;
#X msg 518 190 0 0 0 0 0 0 0 0 0 0 0 0 0 0 0 0;
#X msg 518 230 0 0 0 0 0 0 0 0 0 0 0 0 0 0 0 0;
#X msg 518 250 0 0 0 0 0 0 0 0 0 0 0 0 0 0 0 0;
#X msg 518 290 0 0 0 0 0 0 0 0 0 0 0 0 0 0 0 0;
#X connect 0 0 4 0;
#X connect 1 0 23 0;
#X connect 3 0 6 0;
#X connect 4 0 5 0;
#X connect 4 1 7 0;
#X connect 4 2 8 0;
#X connect 4 3 9 0;
#X connect 4 4 10 0;
#X connect 4 5 11 0;
#X connect 4 6 12 0;
#X connect 4 7 13 0;
#X connect 4 8 14 0;
#X connect 4 9 15 0;
#X connect 4 10 16 0;
#X connect 4 11 17 0;
#X connect 4 12 18 0;
#X connect 4 13 19 0;
#X connect 4 14 20 0;
#X connect 4 15 21 0;
#X connect 5 0 22 0;
#X connect 6 0 5 1;
#X connect 6 1 7 1;
#X connect 6 2 8 1;
#X connect 6 3 9 1;
#X connect 6 4 10 1;
#X connect 6 5 11 1;
#X connect 6 6 12 1;
#X connect 6 7 13 1;
#X connect 6 8 14 1;
#X connect 6 9 15 1;
#X connect 6 10 16 1;
#X connect 6 11 17 1;
#X connect 6 12 18 1;
#X connect 6 13 19 1;
#X connect 6 14 20 1;
#X connect 6 15 21 1;
#X connect 7 0 22 0;
#X connect 8 0 22 0;
#X connect 9 0 22 0;
#X connect 10 0 22 0;
#X connect 11 0 22 0;
#X connect 12 0 22 0;
#X connect 13 0 22 0;
#X connect 14 0 22 0;
#X connect 15 0 22 0;
#X connect 16 0 22 0;
#X connect 17 0 22 0;
#X connect 18 0 22 0;
#X connect 19 0 22 0;
#X connect 20 0 22 0;
#X connect 21 0 22 0;
#X connect 23 0 27 0;
#X connect 23 1 26 0;
#X connect 23 2 28 0;
#X connect 23 3 29 0;
#X connect 23 4 30 0;
#X connect 23 5 25 0;
#X connect 23 6 31 0;
#X connect 23 7 32 0;
#X connect 23 8 3 0;
#X connect 23 9 33 0;
#X connect 25 0 6 0;
#X connect 26 0 6 0;
#X connect 27 0 6 0;
#X connect 28 0 6 0;
#X connect 29 0 6 0;
#X connect 30 0 6 0;
#X connect 31 0 6 0;
#X connect 32 0 6 0;
#X connect 33 0 6 0;
#X restore 631 608 pd perc4;
#N canvas 65 54 1535 846 hh3 0;
#X obj 195 26 inlet;
#X obj 295 26 inlet;
#X text 185 8 step 0-15;
#X msg 518 270 0 0 0 0 0 0 0 0 0 0 0 0 0 0 0 0;
#X obj 24 314 select 0 1 2 3 4 5 6 7 8 9 10 11 12 13 14 15;
#X obj 24 390 spigot;
#X obj 478 314 unpack f f f f f f f f f f f f f f f f;
#X obj 67 390 spigot;
#X obj 110 390 spigot;
#X obj 153 390 spigot;
#X obj 196 390 spigot;
#X obj 239 390 spigot;
#X obj 282 390 spigot;
#X obj 325 390 spigot;
#X obj 369 390 spigot;
#X obj 412 390 spigot;
#X obj 455 390 spigot;
#X obj 498 390 spigot;
#X obj 541 390 spigot;
#X obj 584 390 spigot;
#X obj 627 390 spigot;
#X obj 670 390 spigot;
#X obj 24 631 outlet;
#X obj 295 51 sel 0 1 2 3 4 5 6 7 8 9;
#X text 273 8 selector 0-9;
#X msg 518 210 0 0 0 0 0 0 0 0 0 0 0 0 0 0 0 0;
#X msg 518 130 0 0 0 0 0 0 0 0 0 0 0 0 0 0 0 0;
#X msg 518 110 0 0 0 0 0 0 0 0 0 0 0 0 0 0 0 0;
#X msg 518 150 0 0 0 0 0 0 0 0 0 0 0 0 0 0 0 0;
#X msg 518 170 0 0 0 0 0 0 0 0 0 0 0 0 0 0 0 0;
#X msg 518 190 0 0 0 0 0 0 0 0 0 0 0 0 0 0 0 0;
#X msg 518 230 0 0 0 0 0 0 0 0 0 0 0 0 0 0 0 0;
#X msg 518 250 0 0 0 0 0 0 0 0 0 0 0 0 0 0 0 0;
#X msg 518 290 0 0 0 0 0 0 0 0 0 0 0 0 0 0 0 0;
#X connect 0 0 4 0;
#X connect 1 0 23 0;
#X connect 3 0 6 0;
#X connect 4 0 5 0;
#X connect 4 1 7 0;
#X connect 4 2 8 0;
#X connect 4 3 9 0;
#X connect 4 4 10 0;
#X connect 4 5 11 0;
#X connect 4 6 12 0;
#X connect 4 7 13 0;
#X connect 4 8 14 0;
#X connect 4 9 15 0;
#X connect 4 10 16 0;
#X connect 4 11 17 0;
#X connect 4 12 18 0;
#X connect 4 13 19 0;
#X connect 4 14 20 0;
#X connect 4 15 21 0;
#X connect 5 0 22 0;
#X connect 6 0 5 1;
#X connect 6 1 7 1;
#X connect 6 2 8 1;
#X connect 6 3 9 1;
#X connect 6 4 10 1;
#X connect 6 5 11 1;
#X connect 6 6 12 1;
#X connect 6 7 13 1;
#X connect 6 8 14 1;
#X connect 6 9 15 1;
#X connect 6 10 16 1;
#X connect 6 11 17 1;
#X connect 6 12 18 1;
#X connect 6 13 19 1;
#X connect 6 14 20 1;
#X connect 6 15 21 1;
#X connect 7 0 22 0;
#X connect 8 0 22 0;
#X connect 9 0 22 0;
#X connect 10 0 22 0;
#X connect 11 0 22 0;
#X connect 12 0 22 0;
#X connect 13 0 22 0;
#X connect 14 0 22 0;
#X connect 15 0 22 0;
#X connect 16 0 22 0;
#X connect 17 0 22 0;
#X connect 18 0 22 0;
#X connect 19 0 22 0;
#X connect 20 0 22 0;
#X connect 21 0 22 0;
#X connect 23 0 27 0;
#X connect 23 1 26 0;
#X connect 23 2 28 0;
#X connect 23 3 29 0;
#X connect 23 4 30 0;
#X connect 23 5 25 0;
#X connect 23 6 31 0;
#X connect 23 7 32 0;
#X connect 23 8 3 0;
#X connect 23 9 33 0;
#X connect 25 0 6 0;
#X connect 26 0 6 0;
#X connect 27 0 6 0;
#X connect 28 0 6 0;
#X connect 29 0 6 0;
#X connect 30 0 6 0;
#X connect 31 0 6 0;
#X connect 32 0 6 0;
#X connect 33 0 6 0;
#X restore 331 608 pd hh3;
#N canvas 65 54 1535 846 hh4 0;
#X obj 195 26 inlet;
#X obj 295 26 inlet;
#X text 185 8 step 0-15;
#X msg 518 270 0 0 0 0 0 0 0 0 0 0 0 0 0 0 0 0;
#X obj 24 314 select 0 1 2 3 4 5 6 7 8 9 10 11 12 13 14 15;
#X obj 24 390 spigot;
#X obj 478 314 unpack f f f f f f f f f f f f f f f f;
#X obj 67 390 spigot;
#X obj 110 390 spigot;
#X obj 153 390 spigot;
#X obj 196 390 spigot;
#X obj 239 390 spigot;
#X obj 282 390 spigot;
#X obj 325 390 spigot;
#X obj 369 390 spigot;
#X obj 412 390 spigot;
#X obj 455 390 spigot;
#X obj 498 390 spigot;
#X obj 541 390 spigot;
#X obj 584 390 spigot;
#X obj 627 390 spigot;
#X obj 670 390 spigot;
#X obj 24 631 outlet;
#X obj 295 51 sel 0 1 2 3 4 5 6 7 8 9;
#X text 273 8 selector 0-9;
#X msg 518 210 0 0 0 0 0 0 0 0 0 0 0 0 0 0 0 0;
#X msg 518 130 0 0 0 0 0 0 0 0 0 0 0 0 0 0 0 0;
#X msg 518 110 0 0 0 0 0 0 0 0 0 0 0 0 0 0 0 0;
#X msg 518 150 0 0 0 0 0 0 0 0 0 0 0 0 0 0 0 0;
#X msg 518 170 0 0 0 0 0 0 0 0 0 0 0 0 0 0 0 0;
#X msg 518 190 0 0 0 0 0 0 0 0 0 0 0 0 0 0 0 0;
#X msg 518 230 0 0 0 0 0 0 0 0 0 0 0 0 0 0 0 0;
#X msg 518 250 0 0 0 0 0 0 0 0 0 0 0 0 0 0 0 0;
#X msg 518 290 0 0 0 0 0 0 0 0 0 0 0 0 0 0 0 0;
#X connect 0 0 4 0;
#X connect 1 0 23 0;
#X connect 3 0 6 0;
#X connect 4 0 5 0;
#X connect 4 1 7 0;
#X connect 4 2 8 0;
#X connect 4 3 9 0;
#X connect 4 4 10 0;
#X connect 4 5 11 0;
#X connect 4 6 12 0;
#X connect 4 7 13 0;
#X connect 4 8 14 0;
#X connect 4 9 15 0;
#X connect 4 10 16 0;
#X connect 4 11 17 0;
#X connect 4 12 18 0;
#X connect 4 13 19 0;
#X connect 4 14 20 0;
#X connect 4 15 21 0;
#X connect 5 0 22 0;
#X connect 6 0 5 1;
#X connect 6 1 7 1;
#X connect 6 2 8 1;
#X connect 6 3 9 1;
#X connect 6 4 10 1;
#X connect 6 5 11 1;
#X connect 6 6 12 1;
#X connect 6 7 13 1;
#X connect 6 8 14 1;
#X connect 6 9 15 1;
#X connect 6 10 16 1;
#X connect 6 11 17 1;
#X connect 6 12 18 1;
#X connect 6 13 19 1;
#X connect 6 14 20 1;
#X connect 6 15 21 1;
#X connect 7 0 22 0;
#X connect 8 0 22 0;
#X connect 9 0 22 0;
#X connect 10 0 22 0;
#X connect 11 0 22 0;
#X connect 12 0 22 0;
#X connect 13 0 22 0;
#X connect 14 0 22 0;
#X connect 15 0 22 0;
#X connect 16 0 22 0;
#X connect 17 0 22 0;
#X connect 18 0 22 0;
#X connect 19 0 22 0;
#X connect 20 0 22 0;
#X connect 21 0 22 0;
#X connect 23 0 27 0;
#X connect 23 1 26 0;
#X connect 23 2 28 0;
#X connect 23 3 29 0;
#X connect 23 4 30 0;
#X connect 23 5 25 0;
#X connect 23 6 31 0;
#X connect 23 7 32 0;
#X connect 23 8 3 0;
#X connect 23 9 33 0;
#X connect 25 0 6 0;
#X connect 26 0 6 0;
#X connect 27 0 6 0;
#X connect 28 0 6 0;
#X connect 29 0 6 0;
#X connect 30 0 6 0;
#X connect 31 0 6 0;
#X connect 32 0 6 0;
#X connect 33 0 6 0;
#X restore 391 608 pd hh4;
#X obj 52 374 print;
#X msg 10 333 devices;
#X obj -29 332 r com;
#X obj -29 353 comport 0 9600;
#X msg -29 559 print A;
#X obj -29 579 s com;
#X obj 31 579 s com;
#X msg 31 559 print B;
#X obj 91 579 s com;
#X obj 151 579 s com;
#X obj 211 579 s com;
#X obj 271 579 s com;
#X obj 331 669 s com;
#X obj 391 669 s com;
#X msg 91 559 print C;
#X msg 151 559 print D;
#X msg 211 559 print E;
#X msg 271 559 print F;
#X obj 451 579 s com;
#X obj 511 579 s com;
#X obj 571 669 s com;
#X obj 631 669 s com;
#X obj -29 539 bng 15 250 50 0 empty empty empty 17 7 0 10 -262144
-1 -1;
#X obj 31 539 bng 15 250 50 0 empty empty empty 17 7 0 10 -262144 -1
-1;
#X obj 91 539 bng 15 250 50 0 empty empty empty 17 7 0 10 -262144 -1
-1;
#X obj 151 539 bng 15 250 50 0 empty empty empty 17 7 0 10 -262144
-1 -1;
#X obj 211 539 bng 15 250 50 0 empty empty empty 17 7 0 10 -262144
-1 -1;
#X obj 271 539 bng 15 250 50 0 empty empty empty 17 7 0 10 -262144
-1 -1;
#X obj 331 629 bng 15 250 50 0 empty empty empty 17 7 0 10 -262144
-1 -1;
#X obj 391 629 bng 15 250 50 0 empty empty empty 17 7 0 10 -262144
-1 -1;
#X obj 451 539 bng 15 250 50 0 empty empty empty 17 7 0 10 -262144
-1 -1;
#X obj 511 539 bng 15 250 50 0 empty empty empty 17 7 0 10 -262144
-1 -1;
#X obj 571 539 bng 15 250 50 0 empty empty empty 17 7 0 10 -262144
-1 -1;
#X obj 631 629 bng 15 250 50 0 empty empty empty 17 7 0 10 -262144
-1 -1;
#X obj -29 424 bng 15 250 50 0 empty empty empty 17 7 0 10 -262144
-1 -1;
#X obj -29 382 mod 4;
#X obj -29 403 sel 0;
#X obj 91 415 pipe 20;
#X obj 91 345 mod 16;
#N canvas 406 230 450 300 swing 0;
#X obj -86 191 expr (($f1 - 0) * (($f2 - 0) / (127 - 0))) + 0;
#X floatatom -86 212 5 0 0 0 - - -;
#X obj 187 132 /;
#X msg 187 112 4000;
#X obj 187 93 t b i;
#X obj 187 152 i;
#X floatatom 187 172 5 0 0 0 - - -;
#X obj -165 242 mod 2;
#X obj -165 264 expr if($f1 == 1 \, $f2 \, 0);
#X obj -165 44 inlet;
#X text -164 25 metro;
#X obj -86 44 inlet;
#X text -104 25 swing (0 - 127);
#X obj 187 44 inlet;
#X text 191 24 bpm;
#X obj -165 286 outlet;
#X connect 0 0 1 0;
#X connect 1 0 8 1;
#X connect 2 0 5 0;
#X connect 3 0 2 0;
#X connect 4 0 3 0;
#X connect 4 1 2 1;
#X connect 5 0 6 0;
#X connect 6 0 0 1;
#X connect 7 0 8 0;
#X connect 8 0 15 0;
#X connect 9 0 7 0;
#X connect 11 0 0 0;
#X connect 13 0 4 0;
#X restore 130 378 pd swing;
#X obj 118 196 t b f;
#X obj 175 176 knob 32 32 0 127 0 0 empty empty empty 0 -8 0 8 -262144
-1 -1 1831 1;
#X text 174 151 swing;
#X obj 225 176 knob 32 32 40 167 0 0 empty empty empty 0 -8 0 8 -262144
-1 -1 0 1;
#X text 229 151 bpm;
#X obj 91 106 loadbang;
#X obj 227 335 ctlin 0;
#X obj 307 335 ctlin 1;
#X obj 387 335 ctlin 2;
#X obj 467 335 ctlin 3;
#X obj 225 105 ctlin 4;
#X obj 225 129 + 40;
#X msg 102 134 75;
#X text 583 277 stop if idle for 2 min;
#X obj 664 304 loadbang;
#X msg 664 326 1;
#X obj 664 346 tgl 15 0 empty empty empty 17 7 0 10 -262144 -1 -1 1
1;
#X obj 583 346 bng 15 250 50 0 empty empty empty 17 7 0 10 -262144
-1 -1;
#X obj 583 366 spigot;
#X msg 583 388 0;
#X obj 583 326 delay 120000;
#X obj 583 304 t b;
#X msg 331 649 print Z;
#X msg 391 649 print Z;
#X msg 571 649 print Z;
#X msg 631 650 print Z;
#X msg 451 559 print G;
#X msg 511 559 print H;
#X msg 135 135 115;
#X obj 762 334 t b;
#X obj 762 356 random 2;
#X obj 734 354 bng 15 250 50 0 empty empty empty 17 7 0 10 -262144
-1 -1;
#X obj 762 378 sel 0;
#X obj 818 334 t b;
#X obj 818 356 random 2;
#X obj 790 354 bng 15 250 50 0 empty empty empty 17 7 0 10 -262144
-1 -1;
#X obj 818 378 sel 0;
#X obj 762 422 s com;
#X msg 762 400 print I;
#X msg 819 400 print J;
#X msg 878 400 print K;
#X msg 935 400 print L;
#X obj 762 312 ctlin 5;
#X obj 818 312 ctlin 6;
#X connect 0 0 1 0;
#X connect 1 0 20 1;
#X connect 1 0 21 1;
#X connect 2 0 3 0;
#X connect 3 0 22 1;
#X connect 3 0 23 1;
#X connect 4 0 5 0;
#X connect 5 0 24 1;
#X connect 5 0 25 1;
#X connect 5 0 30 1;
#X connect 5 0 31 1;
#X connect 6 0 7 0;
#X connect 7 0 26 1;
#X connect 7 0 27 1;
#X connect 7 0 28 1;
#X connect 7 0 29 1;
#X connect 12 0 15 0;
#X connect 13 0 72 0;
#X connect 14 0 12 0;
#X connect 15 0 70 0;
#X connect 16 0 15 1;
#X connect 17 0 18 0;
#X connect 18 0 12 1;
#X connect 19 0 17 0;
#X connect 20 0 54 0;
#X connect 21 0 55 0;
#X connect 22 0 56 0;
#X connect 23 0 57 0;
#X connect 24 0 58 0;
#X connect 25 0 59 0;
#X connect 26 0 62 0;
#X connect 27 0 63 0;
#X connect 28 0 64 0;
#X connect 29 0 65 0;
#X connect 30 0 60 0;
#X connect 31 0 61 0;
#X connect 33 0 35 0;
#X connect 34 0 35 0;
#X connect 35 1 32 0;
#X connect 36 0 37 0;
#X connect 39 0 38 0;
#X connect 46 0 40 0;
#X connect 47 0 41 0;
#X connect 48 0 42 0;
#X connect 49 0 43 0;
#X connect 54 0 36 0;
#X connect 55 0 39 0;
#X connect 56 0 46 0;
#X connect 57 0 47 0;
#X connect 58 0 48 0;
#X connect 59 0 49 0;
#X connect 60 0 94 0;
#X connect 61 0 95 0;
#X connect 62 0 98 0;
#X connect 63 0 99 0;
#X connect 64 0 96 0;
#X connect 65 0 97 0;
#X connect 67 0 68 0;
#X connect 68 0 66 0;
#X connect 69 0 20 0;
#X connect 69 0 21 0;
#X connect 69 0 22 0;
#X connect 69 0 23 0;
#X connect 69 0 24 0;
#X connect 69 0 25 0;
#X connect 69 0 30 0;
#X connect 69 0 31 0;
#X connect 69 0 26 0;
#X connect 69 0 27 0;
#X connect 69 0 28 0;
#X connect 69 0 29 0;
#X connect 69 0 67 0;
#X connect 70 0 69 0;
#X connect 70 0 71 0;
#X connect 70 0 16 0;
#X connect 71 0 69 1;
#X connect 72 0 19 0;
#X connect 72 1 17 1;
#X connect 72 1 71 2;
#X connect 73 0 71 1;
#X connect 75 0 13 0;
#X connect 77 0 14 0;
#X connect 77 0 84 0;
#X connect 77 0 100 0;
#X connect 78 0 1 0;
#X connect 78 0 93 0;
#X connect 79 0 3 0;
#X connect 79 0 93 0;
#X connect 80 0 5 0;
#X connect 80 0 93 0;
#X connect 81 0 7 0;
#X connect 81 0 93 0;
#X connect 82 0 83 0;
#X connect 83 0 13 0;
#X connect 84 0 73 0;
#X connect 86 0 87 0;
#X connect 87 0 88 0;
#X connect 88 0 90 1;
#X connect 89 0 90 0;
#X connect 90 0 91 0;
#X connect 91 0 1 0;
#X connect 91 0 3 0;
#X connect 91 0 5 0;
#X connect 91 0 7 0;
#X connect 92 0 89 0;
#X connect 93 0 92 0;
#X connect 94 0 44 0;
#X connect 95 0 45 0;
#X connect 96 0 52 0;
#X connect 97 0 53 0;
#X connect 98 0 50 0;
#X connect 99 0 51 0;
#X connect 100 0 13 0;
#X connect 101 0 102 0;
#X connect 102 0 104 0;
#X connect 103 0 102 0;
#X connect 104 0 110 0;
#X connect 104 1 111 0;
#X connect 105 0 106 0;
#X connect 106 0 108 0;
#X connect 107 0 106 0;
#X connect 108 0 112 0;
#X connect 108 1 113 0;
#X connect 110 0 109 0;
#X connect 111 0 109 0;
#X connect 112 0 109 0;
#X connect 113 0 109 0;
#X connect 114 0 93 0;
#X connect 114 0 101 0;
#X connect 115 0 93 0;
#X connect 115 0 105 0;
