#N canvas 65 82 1265 723 10;
#X obj 99 64 print;
#X msg 55 19 devices;
#X floatatom 18 63 5 0 0 0 - - -;
#X msg 208 51 1;
#X msg 235 51 0;
#X floatatom 264 52 5 0 0 0 - - -;
#X floatatom 303 52 5 0 0 0 - - -;
#X obj 208 77 sequencer_clock;
#X floatatom 345 52 5 0 0 0 - - -;
#X floatatom 386 52 5 0 0 0 - - -;
#X obj 264 11 expr (60 / $f1) * 1000;
#X obj 454 0 16stepsequencer;
#X floatatom 264 -9 5 0 0 0 - - -;
#X obj 359 -10 s reset_clock;
#X obj 359 -28 bng 15 250 50 0 empty empty empty 17 7 0 10 -262144
-1 -1;
#X msg 303 31 16;
#X msg 345 31 16;
#X msg 386 31 16;
#X msg 264 -30 240;
#X obj 303 -29 loadbang;
#X obj 892 -19 r reset;
#X obj 698 -18 bng 15 250 50 0 empty empty empty 17 7 0 10 -262144
-1 -1;
#X obj 699 208 bng 15 250 50 0 empty empty empty 17 7 0 10 -262144
-1 -1;
#X obj 455 227 16stepsequencer;
#X obj 942 -18 bng 15 250 50 0 empty empty empty 17 7 0 10 -262144
-1 -1;
#X obj 208 97 s clock;
#X obj 454 -19 r clock;
#X obj 455 208 r clock;
#X obj 455 114 16stepsequencer;
#X obj 699 95 bng 15 250 50 0 empty empty empty 17 7 0 10 -262144 -1
-1;
#X obj 455 95 r clock;
#X obj 718 -19 r incoming_A;
#X obj 719 95 r incoming_B;
#X obj 717 208 r incoming_C;
#X obj 699 320 bng 15 250 50 0 empty empty empty 17 7 0 10 -262144
-1 -1;
#X obj 455 339 16stepsequencer;
#X obj 455 320 r clock;
#X obj 717 320 r incoming_D;
#X obj 699 434 bng 15 250 50 0 empty empty empty 17 7 0 10 -262144
-1 -1;
#X obj 455 453 16stepsequencer;
#X obj 455 434 r clock;
#X obj 717 434 r incoming_E;
#X obj 699 547 bng 15 250 50 0 empty empty empty 17 7 0 10 -262144
-1 -1;
#X obj 455 566 16stepsequencer;
#X obj 455 547 r clock;
#X obj 893 95 r reset;
#X obj 943 96 bng 15 250 50 0 empty empty empty 17 7 0 10 -262144 -1
-1;
#X obj 893 208 r reset;
#X obj 943 209 bng 15 250 50 0 empty empty empty 17 7 0 10 -262144
-1 -1;
#X obj 893 320 r reset;
#X obj 943 321 bng 15 250 50 0 empty empty empty 17 7 0 10 -262144
-1 -1;
#X obj 893 434 r reset;
#X obj 943 435 bng 15 250 50 0 empty empty empty 17 7 0 10 -262144
-1 -1;
#X obj 893 547 r reset;
#X obj 943 548 bng 15 250 50 0 empty empty empty 17 7 0 10 -262144
-1 -1;
#X obj 717 547 r incoming_F;
#X obj 968 1 16stepsequencer;
#X obj 1406 -18 r reset;
#X obj 1212 -17 bng 15 250 50 0 empty empty empty 17 7 0 10 -262144
-1 -1;
#X obj 1213 209 bng 15 250 50 0 empty empty empty 17 7 0 10 -262144
-1 -1;
#X obj 969 228 16stepsequencer;
#X obj 1456 -17 bng 15 250 50 0 empty empty empty 17 7 0 10 -262144
-1 -1;
#X obj 968 -18 r clock;
#X obj 969 209 r clock;
#X obj 969 115 16stepsequencer;
#X obj 1213 96 bng 15 250 50 0 empty empty empty 17 7 0 10 -262144
-1 -1;
#X obj 969 96 r clock;
#X obj 1213 321 bng 15 250 50 0 empty empty empty 17 7 0 10 -262144
-1 -1;
#X obj 969 340 16stepsequencer;
#X obj 969 321 r clock;
#X obj 1213 435 bng 15 250 50 0 empty empty empty 17 7 0 10 -262144
-1 -1;
#X obj 969 454 16stepsequencer;
#X obj 969 435 r clock;
#X obj 1213 548 bng 15 250 50 0 empty empty empty 17 7 0 10 -262144
-1 -1;
#X obj 969 567 16stepsequencer;
#X obj 969 548 r clock;
#X obj 1407 96 r reset;
#X obj 1457 97 bng 15 250 50 0 empty empty empty 17 7 0 10 -262144
-1 -1;
#X obj 1407 209 r reset;
#X obj 1457 210 bng 15 250 50 0 empty empty empty 17 7 0 10 -262144
-1 -1;
#X obj 1407 321 r reset;
#X obj 1457 322 bng 15 250 50 0 empty empty empty 17 7 0 10 -262144
-1 -1;
#X obj 1407 435 r reset;
#X obj 1457 436 bng 15 250 50 0 empty empty empty 17 7 0 10 -262144
-1 -1;
#X obj 1407 548 r reset;
#X obj 1457 549 bng 15 250 50 0 empty empty empty 17 7 0 10 -262144
-1 -1;
#X obj 1232 -18 r incoming_G;
#X obj 1233 96 r incoming_H;
#X obj 1231 209 r incoming_I;
#X obj 1231 321 r incoming_J;
#X obj 1231 435 r incoming_K;
#X obj 1231 548 r incoming_L;
#X obj 1483 2 16stepsequencer;
#X obj 1921 -17 r reset;
#X obj 1727 -16 bng 15 250 50 0 empty empty empty 17 7 0 10 -262144
-1 -1;
#X obj 1728 210 bng 15 250 50 0 empty empty empty 17 7 0 10 -262144
-1 -1;
#X obj 1484 229 16stepsequencer;
#X obj 1971 -16 bng 15 250 50 0 empty empty empty 17 7 0 10 -262144
-1 -1;
#X obj 1483 -17 r clock;
#X obj 1484 210 r clock;
#X obj 1484 116 16stepsequencer;
#X obj 1728 97 bng 15 250 50 0 empty empty empty 17 7 0 10 -262144
-1 -1;
#X obj 1484 97 r clock;
#X obj 1728 322 bng 15 250 50 0 empty empty empty 17 7 0 10 -262144
-1 -1;
#X obj 1484 341 16stepsequencer;
#X obj 1484 322 r clock;
#X obj 1728 436 bng 15 250 50 0 empty empty empty 17 7 0 10 -262144
-1 -1;
#X obj 1484 455 16stepsequencer;
#X obj 1484 436 r clock;
#X obj 1922 97 r reset;
#X obj 1972 98 bng 15 250 50 0 empty empty empty 17 7 0 10 -262144
-1 -1;
#X obj 1922 210 r reset;
#X obj 1972 211 bng 15 250 50 0 empty empty empty 17 7 0 10 -262144
-1 -1;
#X obj 1922 322 r reset;
#X obj 1972 323 bng 15 250 50 0 empty empty empty 17 7 0 10 -262144
-1 -1;
#X obj 1922 436 r reset;
#X obj 1972 437 bng 15 250 50 0 empty empty empty 17 7 0 10 -262144
-1 -1;
#X obj 1747 -17 r incoming_M;
#X obj 1748 97 r incoming_N;
#X obj 1746 210 r incoming_O;
#X obj 1746 322 r incoming_P;
#X obj 1746 436 r incoming_Q;
#X obj 1999 2 16stepsequencer;
#X obj 2437 -17 r reset;
#X obj 2243 -16 bng 15 250 50 0 empty empty empty 17 7 0 10 -262144
-1 -1;
#X obj 2244 210 bng 15 250 50 0 empty empty empty 17 7 0 10 -262144
-1 -1;
#X obj 2000 229 16stepsequencer;
#X obj 2487 -16 bng 15 250 50 0 empty empty empty 17 7 0 10 -262144
-1 -1;
#X obj 1999 -17 r clock;
#X obj 2000 210 r clock;
#X obj 2000 116 16stepsequencer;
#X obj 2244 97 bng 15 250 50 0 empty empty empty 17 7 0 10 -262144
-1 -1;
#X obj 2000 97 r clock;
#X obj 2244 322 bng 15 250 50 0 empty empty empty 17 7 0 10 -262144
-1 -1;
#X obj 2000 341 16stepsequencer;
#X obj 2000 322 r clock;
#X obj 2244 436 bng 15 250 50 0 empty empty empty 17 7 0 10 -262144
-1 -1;
#X obj 2000 455 16stepsequencer;
#X obj 2000 436 r clock;
#X obj 2438 97 r reset;
#X obj 2488 98 bng 15 250 50 0 empty empty empty 17 7 0 10 -262144
-1 -1;
#X obj 2438 210 r reset;
#X obj 2488 211 bng 15 250 50 0 empty empty empty 17 7 0 10 -262144
-1 -1;
#X obj 2438 322 r reset;
#X obj 2488 323 bng 15 250 50 0 empty empty empty 17 7 0 10 -262144
-1 -1;
#X obj 2438 436 r reset;
#X obj 2488 437 bng 15 250 50 0 empty empty empty 17 7 0 10 -262144
-1 -1;
#X obj 2263 -17 r incoming_R;
#X obj 2264 97 r incoming_S;
#X obj 2262 210 r incoming_T;
#X obj 2262 322 r incoming_U;
#X obj 2262 436 r incoming_V;
#X msg 505 95 print A;
#X obj 559 95 s com;
#X obj 18 19 r com;
#X obj 559 208 s com;
#X msg 505 208 print B;
#X obj 428 169 bng 15 250 50 0 empty empty empty 17 7 0 10 -262144
-1 -1;
#X obj 229 219 bng 15 250 50 0 empty empty empty 17 7 0 10 -262144
-1 -1;
#X obj 229 268 s reset;
#X obj 17 117 cnv 15 400 20 empty empty Arduino_1_-_Solenoids_A_B_C_D_E_and_F
20 12 0 14 -257985 -66577 0;
#X obj 968 -43 cnv 15 400 20 empty empty Arduino_2_-_Solenoids_G_H_I_J_K_and_L
20 12 0 14 -260097 -66577 0;
#X obj 1483 -42 cnv 15 400 20 empty empty Arduino_3_-_Servos_M_N_and_Motors_O_P_Q
20 12 0 14 -4034 -66577 0;
#X obj 1999 -42 cnv 15 400 20 empty empty Arduino_4_-_Servos_R_S_and_Motors_T_U_V
20 12 0 14 -4032 -66577 0;
#X obj 18 474 cnv 15 400 20 empty empty Arduino_3_-_Servos_M_N_and_Motors_O_P_Q
20 12 0 14 -4034 -66577 0;
#X obj 18 498 cnv 15 400 20 empty empty Arduino_4_-_Servos_R_S_and_Motors_T_U_V
20 12 0 14 -4032 -66577 0;
#X obj 453 -44 cnv 15 400 20 empty empty Arduino_1_-_Solenoids_A_B_C_D_E_and_F
20 12 0 14 -257985 -66577 0;
#X obj 17 296 cnv 15 400 20 empty empty Arduino_2_-_Solenoids_G_H_I_J_K_and_L
20 12 0 14 -260097 -66577 0;
#X obj 18 143 route 65 66 67 68 69 70;
#X obj 130 42 print;
#X obj 559 320 s com;
#X msg 505 320 print C;
#X obj 559 434 s com;
#X msg 505 434 print D;
#X obj 559 547 s com;
#X msg 505 547 print E;
#X obj 509 656 s com;
#X msg 455 656 print F;
#X obj 1071 96 s com;
#X msg 1017 96 print G;
#X obj 1071 209 s com;
#X msg 1017 209 print H;
#X obj 1071 321 s com;
#X msg 1017 321 print I;
#X obj 1071 435 s com;
#X msg 1017 435 print J;
#X obj 1071 548 s com;
#X msg 1017 548 print K;
#X obj 1023 657 s com;
#X msg 969 657 print L;
#X obj 1586 97 s com;
#X msg 1532 97 print M;
#X obj 1586 210 s com;
#X msg 1532 210 print N;
#X obj 1586 322 s com;
#X msg 1532 322 print O;
#X obj 1586 436 s com;
#X msg 1532 436 print P;
#X obj 1538 545 s com;
#X msg 1484 545 print Q;
#X obj 2102 97 s com;
#X msg 2048 97 print R;
#X obj 2102 210 s com;
#X msg 2048 210 print S;
#X obj 2102 322 s com;
#X msg 2048 322 print T;
#X obj 2102 436 s com;
#X msg 2048 436 print U;
#X obj 2054 545 s com;
#X msg 2000 545 print V;
#X obj 18 165 bng 15 250 50 0 empty empty empty 17 7 0 10 -262144 -1
-1;
#X obj 40 165 bng 15 250 50 0 empty empty empty 17 7 0 10 -262144 -1
-1;
#X obj 63 165 bng 15 250 50 0 empty empty empty 17 7 0 10 -262144 -1
-1;
#X obj 85 165 bng 15 250 50 0 empty empty empty 17 7 0 10 -262144 -1
-1;
#X obj 108 165 bng 15 250 50 0 empty empty empty 17 7 0 10 -262144
-1 -1;
#X obj 130 165 bng 15 250 50 0 empty empty empty 17 7 0 10 -262144
-1 -1;
#X obj 18 182 s incoming_A;
#X obj 40 201 s incoming_B;
#X obj 63 220 s incoming_C;
#X obj 85 239 s incoming_D;
#X obj 108 258 s incoming_E;
#X obj 130 277 s incoming_F;
#X obj 18 342 bng 15 250 50 0 empty empty empty 17 7 0 10 -262144 -1
-1;
#X obj 40 342 bng 15 250 50 0 empty empty empty 17 7 0 10 -262144 -1
-1;
#X obj 63 342 bng 15 250 50 0 empty empty empty 17 7 0 10 -262144 -1
-1;
#X obj 85 342 bng 15 250 50 0 empty empty empty 17 7 0 10 -262144 -1
-1;
#X obj 108 342 bng 15 250 50 0 empty empty empty 17 7 0 10 -262144
-1 -1;
#X obj 130 342 bng 15 250 50 0 empty empty empty 17 7 0 10 -262144
-1 -1;
#X obj 18 320 route 71 72 73 74 75 76;
#X obj 18 359 s incoming_G;
#X obj 40 378 s incoming_H;
#X obj 63 397 s incoming_I;
#X obj 85 416 s incoming_J;
#X obj 108 435 s incoming_K;
#X obj 130 454 s incoming_L;
#X obj 18 544 bng 15 250 50 0 empty empty empty 17 7 0 10 -262144 -1
-1;
#X obj 40 544 bng 15 250 50 0 empty empty empty 17 7 0 10 -262144 -1
-1;
#X obj 63 544 bng 15 250 50 0 empty empty empty 17 7 0 10 -262144 -1
-1;
#X obj 85 544 bng 15 250 50 0 empty empty empty 17 7 0 10 -262144 -1
-1;
#X obj 108 544 bng 15 250 50 0 empty empty empty 17 7 0 10 -262144
-1 -1;
#X obj 18 522 route 77 78 79 80 81;
#X obj 18 561 s incoming_M;
#X obj 40 580 s incoming_N;
#X obj 63 599 s incoming_O;
#X obj 85 618 s incoming_P;
#X obj 108 637 s incoming_Q;
#X obj 227 544 bng 15 250 50 0 empty empty empty 17 7 0 10 -262144
-1 -1;
#X obj 249 544 bng 15 250 50 0 empty empty empty 17 7 0 10 -262144
-1 -1;
#X obj 272 544 bng 15 250 50 0 empty empty empty 17 7 0 10 -262144
-1 -1;
#X obj 294 544 bng 15 250 50 0 empty empty empty 17 7 0 10 -262144
-1 -1;
#X obj 317 544 bng 15 250 50 0 empty empty empty 17 7 0 10 -262144
-1 -1;
#X obj 227 522 route 82 83 84 85 86;
#X obj 227 561 s incoming_R;
#X obj 249 580 s incoming_S;
#X obj 272 599 s incoming_T;
#X obj 294 618 s incoming_U;
#X obj 317 637 s incoming_V;
#X text 303 148 Automatic timeout;
#X text 303 159 reset after last;
#X text 303 169 button press;
#X obj 225 320 route 87;
#X obj 225 341 bng 15 250 50 0 empty empty empty 17 7 0 10 -262144
-1 -1;
#X text 279 319 Reset button;
#X obj 225 360 s reset;
#X obj 208 -30 r speed;
#X obj 322 210 r clock;
#X text 320 194 Sending tempo clock;
#X floatatom 322 232 5 0 0 0 - - -;
#X obj 372 210 mod 4;
#X obj 372 231 route 0;
#X obj 322 252 bng 15 250 50 0 empty empty empty 17 7 0 10 -262144
-1 -1;
#X msg 341 252 print X;
#X obj 341 274 s com;
#X obj 229 242 spigot;
#X obj 271 225 tgl 15 0 empty empty empty 17 7 0 10 -262144 -1 -1 1
1;
#X obj 236 187 loadbang;
#X msg 271 206 1;
#X obj 224 389 route 48 49 50 51 52 53 54 55 56 57;
#X obj 208 11 line;
#X msg 208 -9 \$1 250;
#X msg 224 409 310;
#X msg 234 419 280;
#X msg 244 429 250;
#X msg 254 439 220;
#X msg 294 409 200;
#X msg 304 419 180;
#X msg 314 429 160;
#X msg 324 439 140;
#X msg 364 409 120;
#X msg 374 419 100;
#X obj 374 448 s speed;
#X obj 378 -30 r reset;
#X text 311 371 Speed variables (0-9);
#X obj 18 43 comport 0 9600;
#X floatatom 151 -1 5 0 0 0 - - -;
#X obj 278 359 bng 15 250 50 0 empty empty empty 17 7 0 10 -262144
-1 -1;
#X obj 229 168 delay 20000;
#X obj 229 143 route 48 49 50 51 52 53 54 55 56 57;
#X connect 1 0 293 0;
#X connect 2 0 168 0;
#X connect 2 0 297 0;
#X connect 3 0 7 0;
#X connect 4 0 7 0;
#X connect 5 0 7 1;
#X connect 6 0 7 2;
#X connect 7 0 25 0;
#X connect 8 0 7 3;
#X connect 9 0 7 4;
#X connect 10 0 5 0;
#X connect 10 0 279 0;
#X connect 11 0 152 0;
#X connect 12 0 10 0;
#X connect 14 0 13 0;
#X connect 15 0 6 0;
#X connect 16 0 8 0;
#X connect 17 0 9 0;
#X connect 18 0 12 0;
#X connect 19 0 18 0;
#X connect 19 0 17 0;
#X connect 19 0 16 0;
#X connect 19 0 15 0;
#X connect 19 0 14 0;
#X connect 20 0 24 0;
#X connect 21 0 11 1;
#X connect 22 0 23 1;
#X connect 23 0 171 0;
#X connect 24 0 11 2;
#X connect 26 0 11 0;
#X connect 27 0 23 0;
#X connect 28 0 156 0;
#X connect 29 0 28 1;
#X connect 30 0 28 0;
#X connect 31 0 21 0;
#X connect 32 0 29 0;
#X connect 33 0 22 0;
#X connect 34 0 35 1;
#X connect 35 0 173 0;
#X connect 36 0 35 0;
#X connect 37 0 34 0;
#X connect 38 0 39 1;
#X connect 39 0 175 0;
#X connect 40 0 39 0;
#X connect 41 0 38 0;
#X connect 42 0 43 1;
#X connect 43 0 177 0;
#X connect 44 0 43 0;
#X connect 45 0 46 0;
#X connect 46 0 28 2;
#X connect 47 0 48 0;
#X connect 48 0 23 2;
#X connect 49 0 50 0;
#X connect 50 0 35 2;
#X connect 51 0 52 0;
#X connect 52 0 39 2;
#X connect 53 0 54 0;
#X connect 54 0 43 2;
#X connect 55 0 42 0;
#X connect 56 0 179 0;
#X connect 57 0 61 0;
#X connect 58 0 56 1;
#X connect 59 0 60 1;
#X connect 60 0 183 0;
#X connect 61 0 56 2;
#X connect 62 0 56 0;
#X connect 63 0 60 0;
#X connect 64 0 181 0;
#X connect 65 0 64 1;
#X connect 66 0 64 0;
#X connect 67 0 68 1;
#X connect 68 0 185 0;
#X connect 69 0 68 0;
#X connect 70 0 71 1;
#X connect 71 0 187 0;
#X connect 72 0 71 0;
#X connect 73 0 74 1;
#X connect 74 0 189 0;
#X connect 75 0 74 0;
#X connect 76 0 77 0;
#X connect 77 0 64 2;
#X connect 78 0 79 0;
#X connect 79 0 60 2;
#X connect 80 0 81 0;
#X connect 81 0 68 2;
#X connect 82 0 83 0;
#X connect 83 0 71 2;
#X connect 84 0 85 0;
#X connect 85 0 74 2;
#X connect 86 0 58 0;
#X connect 87 0 65 0;
#X connect 88 0 59 0;
#X connect 89 0 67 0;
#X connect 90 0 70 0;
#X connect 91 0 73 0;
#X connect 92 0 191 0;
#X connect 93 0 97 0;
#X connect 94 0 92 1;
#X connect 95 0 96 1;
#X connect 96 0 195 0;
#X connect 97 0 92 2;
#X connect 98 0 92 0;
#X connect 99 0 96 0;
#X connect 100 0 193 0;
#X connect 101 0 100 1;
#X connect 102 0 100 0;
#X connect 103 0 104 1;
#X connect 104 0 197 0;
#X connect 105 0 104 0;
#X connect 106 0 107 1;
#X connect 107 0 199 0;
#X connect 108 0 107 0;
#X connect 109 0 110 0;
#X connect 110 0 100 2;
#X connect 111 0 112 0;
#X connect 112 0 96 2;
#X connect 113 0 114 0;
#X connect 114 0 104 2;
#X connect 115 0 116 0;
#X connect 116 0 107 2;
#X connect 117 0 94 0;
#X connect 118 0 101 0;
#X connect 119 0 95 0;
#X connect 120 0 103 0;
#X connect 121 0 106 0;
#X connect 122 0 201 0;
#X connect 123 0 127 0;
#X connect 124 0 122 1;
#X connect 125 0 126 1;
#X connect 126 0 205 0;
#X connect 127 0 122 2;
#X connect 128 0 122 0;
#X connect 129 0 126 0;
#X connect 130 0 203 0;
#X connect 131 0 130 1;
#X connect 132 0 130 0;
#X connect 133 0 134 1;
#X connect 134 0 207 0;
#X connect 135 0 134 0;
#X connect 136 0 137 1;
#X connect 137 0 209 0;
#X connect 138 0 137 0;
#X connect 139 0 140 0;
#X connect 140 0 130 2;
#X connect 141 0 142 0;
#X connect 142 0 126 2;
#X connect 143 0 144 0;
#X connect 144 0 134 2;
#X connect 145 0 146 0;
#X connect 146 0 137 2;
#X connect 147 0 124 0;
#X connect 148 0 131 0;
#X connect 149 0 125 0;
#X connect 150 0 133 0;
#X connect 151 0 136 0;
#X connect 152 0 153 0;
#X connect 154 0 169 0;
#X connect 154 0 293 0;
#X connect 156 0 155 0;
#X connect 157 0 296 0;
#X connect 158 0 273 0;
#X connect 168 0 210 0;
#X connect 168 1 211 0;
#X connect 168 2 212 0;
#X connect 168 3 213 0;
#X connect 168 4 214 0;
#X connect 168 5 215 0;
#X connect 168 6 228 0;
#X connect 171 0 170 0;
#X connect 173 0 172 0;
#X connect 175 0 174 0;
#X connect 177 0 176 0;
#X connect 179 0 178 0;
#X connect 181 0 180 0;
#X connect 183 0 182 0;
#X connect 185 0 184 0;
#X connect 187 0 186 0;
#X connect 189 0 188 0;
#X connect 191 0 190 0;
#X connect 193 0 192 0;
#X connect 195 0 194 0;
#X connect 197 0 196 0;
#X connect 199 0 198 0;
#X connect 201 0 200 0;
#X connect 203 0 202 0;
#X connect 205 0 204 0;
#X connect 207 0 206 0;
#X connect 209 0 208 0;
#X connect 210 0 216 0;
#X connect 211 0 217 0;
#X connect 212 0 218 0;
#X connect 213 0 219 0;
#X connect 214 0 220 0;
#X connect 215 0 221 0;
#X connect 222 0 229 0;
#X connect 223 0 230 0;
#X connect 224 0 231 0;
#X connect 225 0 232 0;
#X connect 226 0 233 0;
#X connect 227 0 234 0;
#X connect 228 0 222 0;
#X connect 228 1 223 0;
#X connect 228 2 224 0;
#X connect 228 3 225 0;
#X connect 228 4 226 0;
#X connect 228 5 227 0;
#X connect 228 6 240 0;
#X connect 235 0 241 0;
#X connect 236 0 242 0;
#X connect 237 0 243 0;
#X connect 238 0 244 0;
#X connect 239 0 245 0;
#X connect 240 0 235 0;
#X connect 240 1 236 0;
#X connect 240 2 237 0;
#X connect 240 3 238 0;
#X connect 240 4 239 0;
#X connect 240 5 251 0;
#X connect 246 0 252 0;
#X connect 247 0 253 0;
#X connect 248 0 254 0;
#X connect 249 0 255 0;
#X connect 250 0 256 0;
#X connect 251 0 246 0;
#X connect 251 1 247 0;
#X connect 251 2 248 0;
#X connect 251 3 249 0;
#X connect 251 4 250 0;
#X connect 251 5 260 0;
#X connect 260 0 261 0;
#X connect 260 1 277 0;
#X connect 260 1 295 0;
#X connect 261 0 263 0;
#X connect 264 0 279 0;
#X connect 265 0 267 0;
#X connect 267 0 271 0;
#X connect 268 0 269 0;
#X connect 270 0 271 0;
#X connect 271 0 272 0;
#X connect 273 0 159 0;
#X connect 274 0 273 1;
#X connect 275 0 276 0;
#X connect 276 0 274 0;
#X connect 277 0 280 0;
#X connect 277 1 281 0;
#X connect 277 2 282 0;
#X connect 277 3 283 0;
#X connect 277 4 284 0;
#X connect 277 5 285 0;
#X connect 277 6 286 0;
#X connect 277 7 287 0;
#X connect 277 8 288 0;
#X connect 277 9 289 0;
#X connect 278 0 5 0;
#X connect 278 0 294 0;
#X connect 279 0 278 0;
#X connect 280 0 290 0;
#X connect 281 0 290 0;
#X connect 282 0 290 0;
#X connect 283 0 290 0;
#X connect 284 0 290 0;
#X connect 285 0 290 0;
#X connect 286 0 290 0;
#X connect 287 0 290 0;
#X connect 288 0 290 0;
#X connect 289 0 290 0;
#X connect 291 0 14 0;
#X connect 293 0 2 0;
#X connect 293 1 0 0;
#X connect 296 0 158 0;
#X connect 297 10 157 0;
